<svg xmlns="http://www.w3.org/2000/svg" xmlns:xlink="http://www.w3.org/1999/xlink" viewBox="0 0 430 430" width="430" height="430" preserveAspectRatio="xMidYMid meet" style="width: 100%; height: 100%; transform: translate3d(0px, 0px, 0px); content-visibility: visible;"><defs><clipPath id="__lottie_element_2"><rect width="430" height="430" x="0" y="0"/></clipPath><clipPath id="__lottie_element_4"><path d="M0,0 L430,0 L430,430 L0,430z"/></clipPath><g id="__lottie_element_14"><g transform="matrix(1,0,0,1,265,305)" opacity="1" style="display: block;"><path fill="rgb(75,179,253)" fill-opacity="1" d=" M-45,-70 C-108.51300048828125,-70 -160,-18.51300048828125 -160,45 C-160,45 -160,70 -160,70 C-160,70 160,70 160,70 C160,70 160,45 160,45 C160,-18.51300048828125 108.51300048828125,-70 45,-70 C45,-70 -45,-70 -45,-70z"/><g opacity="1" transform="matrix(1,0,0,1,0,0)"/></g></g><g id="__lottie_element_29"><g transform="matrix(6.96999979019165,0,0,6.96999979019165,187.37794494628906,149.23419189453125)" opacity="1" style="display: block;"><path fill="rgb(255,199,56)" fill-opacity="1" d=" M16.143999099731445,-10.145000457763672 C17.71500015258789,-8.274999618530273 18.660999298095703,-5.861000061035156 18.660999298095703,-3.2269999980926514 C18.660999298095703,-3.2269999980926514 18.660999298095703,-3.2269999980926514 18.660999298095703,-3.2269999980926514 C18.660999298095703,2.7179999351501465 13.843000411987305,7.535999774932861 7.8979997634887695,7.535999774932861 C1.9529999494552612,7.535999774932861 -2.865999937057495,2.7179999351501465 -2.865999937057495,-3.2269999980926514 C-2.865999937057495,-9.17199993133545 1.9529999494552612,-13.991000175476074 7.8979997634887695,-13.991000175476074 C11.208999633789062,-13.991000175476074 14.170000076293945,-12.496999740600586 16.143999099731445,-10.145000457763672"/><g opacity="1" transform="matrix(1,0,0,1,0,0)"/></g></g><filter id="__lottie_element_32" filterUnits="objectBoundingBox" x="0%" y="0%" width="100%" height="100%"><feComponentTransfer in="SourceGraphic"><feFuncA type="table" tableValues="1.0 0.0"/></feComponentTransfer></filter><mask id="__lottie_element_29_2" mask-type="alpha"><g filter="url(#__lottie_element_32)"><rect width="430" height="430" x="0" y="0" fill="#ffffff" opacity="0"/><use xmlns:ns1="http://www.w3.org/1999/xlink" ns1:href="#__lottie_element_29"/></g></mask><filter id="__lottie_element_33" filterUnits="objectBoundingBox" x="0%" y="0%" width="100%" height="100%"><feComponentTransfer in="SourceGraphic"><feFuncA type="table" tableValues="1.0 0.0"/></feComponentTransfer></filter><mask id="__lottie_element_14_2" mask-type="alpha"><g filter="url(#__lottie_element_33)"><rect width="430" height="430" x="0" y="0" fill="#ffffff" opacity="0"/><use xmlns:ns2="http://www.w3.org/1999/xlink" ns2:href="#__lottie_element_14"/></g></mask></defs><g clip-path="url(#__lottie_element_2)"><g clip-path="url(#__lottie_element_4)" transform="matrix(1,0,0,1,0,0)" opacity="1" style="display: block;"><g transform="matrix(1,0,0,1,215,305)" opacity="1" style="display: block;"><path class="secondary" fill="rgb(75,179,253)" fill-opacity="1" d=" M-45,-70 C-108.51300048828125,-70 -160,-18.51300048828125 -160,45 C-160,45 -160,66.125 -160,66.125 C-160,66.125 -160.2239990234375,67.68099975585938 -159.5,68.75 C-159.00900268554688,69.4739990234375 -157.375,70 -157.375,70 C-157.375,70 157.25,70 157.25,70 C157.25,70 158.63099670410156,69.5510025024414 159.25,68.875 C159.92599487304688,68.13800048828125 160,67 160,67 C160,67 160,45 160,45 C160,-18.51300048828125 108.51300048828125,-70 45,-70 C45,-70 -45,-70 -45,-70z"/><g opacity="1" transform="matrix(1,0,0,1,0,0)"/></g><g mask="url(#__lottie_element_14_2)" style="display: block;"><g transform="matrix(1,0,0,1,215,305)" opacity="1"><path class="secondary" fill="rgb(75,179,253)" fill-opacity="1" d=" M-45,-70 C-108.51300048828125,-70 -160,-18.51300048828125 -160,45 C-160,45 -160,66.125 -160,66.125 C-160,66.125 -160.2239990234375,67.68099975585938 -159.5,68.75 C-159.00900268554688,69.4739990234375 -157.375,70 -157.375,70 C-157.375,70 157.25,70 157.25,70 C157.25,70 158.63099670410156,69.5510025024414 159.25,68.875 C159.92599487304688,68.13800048828125 160,67 160,67 C160,67 160,45 160,45 C160,-18.51300048828125 108.51300048828125,-70 45,-70 C45,-70 -45,-70 -45,-70z"/><path class="secondary" fill="rgb(75,179,253)" fill-opacity="0.5" d=" M-45,-70 C-108.51300048828125,-70 -160,-18.51300048828125 -160,45 C-160,45 -160,66.125 -160,66.125 C-160,66.125 -160.2239990234375,67.68099975585938 -159.5,68.75 C-159.00900268554688,69.4739990234375 -157.375,70 -157.375,70 C-157.375,70 157.25,70 157.25,70 C157.25,70 158.63099670410156,69.5510025024414 159.25,68.875 C159.92599487304688,68.13800048828125 160,67 160,67 C160,67 160,45 160,45 C160,-18.51300048828125 108.51300048828125,-70 45,-70 C45,-70 -45,-70 -45,-70z" style="mix-blend-mode: multiply;"/><g opacity="1" transform="matrix(1,0,0,1,0,0)"/></g></g><g transform="matrix(1,0,0,1,215,305)" opacity="1" style="display: block;"><path stroke-linecap="butt" stroke-linejoin="miter" fill-opacity="0" stroke-miterlimit="4" class="primary" stroke="rgb(18,19,49)" stroke-opacity="1" stroke-width="7" d=" M-45,-70 C-108.51300048828125,-70 -160,-18.51300048828125 -160,45 C-160,45 -160,66.125 -160,66.125 C-160,66.125 -160.2239990234375,67.68099975585938 -159.5,68.75 C-159.00900268554688,69.4739990234375 -157.375,70 -157.375,70 C-157.375,70 157.25,70 157.25,70 C157.25,70 158.63099670410156,69.5510025024414 159.25,68.875 C159.92599487304688,68.13800048828125 160,67 160,67 C160,67 160,45 160,45 C160,-18.51300048828125 108.51300048828125,-70 45,-70 C45,-70 -45,-70 -45,-70z"/><g opacity="1" transform="matrix(1,0,0,1,0,0)"/></g><g transform="matrix(6.96999979019165,0,0,6.96999979019165,159.87794494628906,147.48419189453125)" opacity="1" style="display: block;"><path class="tertiary" fill="rgb(255,199,56)" fill-opacity="1" d=" M16.143999099731445,-10.145000457763672 C17.71500015258789,-8.274999618530273 18.660999298095703,-5.861000061035156 18.660999298095703,-3.2269999980926514 C18.660999298095703,-3.2269999980926514 18.660999298095703,-3.2269999980926514 18.660999298095703,-3.2269999980926514 C18.660999298095703,2.7179999351501465 13.843000411987305,7.535999774932861 7.8979997634887695,7.535999774932861 C1.9529999494552612,7.535999774932861 -2.865999937057495,2.7179999351501465 -2.865999937057495,-3.2269999980926514 C-2.865999937057495,-9.17199993133545 1.9529999494552612,-13.991000175476074 7.8979997634887695,-13.991000175476074 C11.208999633789062,-13.991000175476074 14.170000076293945,-12.496999740600586 16.143999099731445,-10.145000457763672"/><g opacity="1" transform="matrix(1,0,0,1,0,0)"/></g><g mask="url(#__lottie_element_29_2)" style="display: block;"><g transform="matrix(6.96999979019165,0,0,6.96999979019165,159.87794494628906,147.48419189453125)" opacity="1"><path class="tertiary" fill="rgb(255,199,56)" fill-opacity="1" d=" M16.143999099731445,-10.145000457763672 C17.71500015258789,-8.274999618530273 18.660999298095703,-5.861000061035156 18.660999298095703,-3.2269999980926514 C18.660999298095703,-3.2269999980926514 18.660999298095703,-3.2269999980926514 18.660999298095703,-3.2269999980926514 C18.660999298095703,2.7179999351501465 13.843000411987305,7.535999774932861 7.8979997634887695,7.535999774932861 C1.9529999494552612,7.535999774932861 -2.865999937057495,2.7179999351501465 -2.865999937057495,-3.2269999980926514 C-2.865999937057495,-9.17199993133545 1.9529999494552612,-13.991000175476074 7.8979997634887695,-13.991000175476074 C11.208999633789062,-13.991000175476074 14.170000076293945,-12.496999740600586 16.143999099731445,-10.145000457763672"/><path class="tertiary" fill="rgb(255,199,56)" fill-opacity="0.5" d=" M16.143999099731445,-10.145000457763672 C17.71500015258789,-8.274999618530273 18.660999298095703,-5.861000061035156 18.660999298095703,-3.2269999980926514 C18.660999298095703,-3.2269999980926514 18.660999298095703,-3.2269999980926514 18.660999298095703,-3.2269999980926514 C18.660999298095703,2.7179999351501465 13.843000411987305,7.535999774932861 7.8979997634887695,7.535999774932861 C1.9529999494552612,7.535999774932861 -2.865999937057495,2.7179999351501465 -2.865999937057495,-3.2269999980926514 C-2.865999937057495,-9.17199993133545 1.9529999494552612,-13.991000175476074 7.8979997634887695,-13.991000175476074 C11.208999633789062,-13.991000175476074 14.170000076293945,-12.496999740600586 16.143999099731445,-10.145000457763672" style="mix-blend-mode: multiply;"/><g opacity="1" transform="matrix(1,0,0,1,0,0)"/></g></g><g transform="matrix(1,0,0,1,215,125)" opacity="1" style="display: block;"><g opacity="1" transform="matrix(1,0,0,1,0,0)"><path stroke-linecap="round" stroke-linejoin="round" fill-opacity="0" class="primary" stroke="rgb(18,19,49)" stroke-opacity="1" stroke-width="7" d=" M0,75 C41.42100143432617,75 75,41.42100143432617 75,0 C75,-41.42100143432617 41.42100143432617,-75 0,-75 C-41.42100143432617,-75 -75,-41.42100143432617 -75,0 C-75,41.42100143432617 -41.42100143432617,75 0,75z"/></g></g></g></g></svg>